<svg width="43" height="49" viewBox="0 0 43 49" fill="none" xmlns="http://www.w3.org/2000/svg">
<path d="M15.1471 22.2319C24.2419 12.73 27.2747 1.42505 40.8739 1.18115C45.7189 11.163 35.7101 20.7601 29.8919 32.5562L32.922 39.5611L30.5453 46.4423C30.5453 46.4423 24.8121 36.324 23.6649 37.9623C22.5178 39.6006 21.9442 40.4198 20.4287 39.969C18.9132 39.5182 12.36 34.9296 11.418 33.6596C10.4761 32.3897 11.0497 31.5705 12.1968 29.9322C13.344 28.2939 5.17131 27.2915 1.875 26.3671L7.52831 21.7802L15.1471 22.2319Z" fill="#FFA902" stroke="#FFA902"/>
<path d="M32.9077 8.7356C34.5936 8.43833 36.201 9.56442 36.4985 11.2502L36.5112 11.3206C36.8086 13.0066 35.6826 14.614 33.9966 14.9114L33.9272 14.9241H33.9263C32.2404 15.2212 30.6328 14.0953 30.3354 12.4094L30.3228 12.3401V12.3391C30.0257 10.6534 31.1517 9.04574 32.8374 8.74829L32.9077 8.7356Z" fill="#99AAFF" stroke="#092F5C" stroke-width="0.8"/>
<path d="M9.56846 35.4825C9.56946 35.4712 9.55366 35.4675 9.54906 35.4779C7.52616 40.1105 7.60936 42.6103 8.17976 47.8727C13.32 46.6089 15.6975 45.8321 19.3588 42.3467C19.367 42.3389 19.3581 42.3252 19.3478 42.3301C15.735 44.0386 13.4836 45.5015 9.32686 46.2344C8.59396 42.0778 9.19866 39.4618 9.56846 35.4825Z" fill="#FFA902" stroke="#FFA902"/>
<path d="M11.2211 36.6158C11.2192 36.6051 11.204 36.605 11.2015 36.6156C10.5974 39.2112 10.5597 41.0085 11.0479 43.777C13.8163 43.2888 15.4923 42.6387 17.7248 41.1832C17.7339 41.1773 17.7287 41.163 17.718 41.165C15.6468 41.541 13.6989 42.586 12.195 42.1387C11.2603 40.8785 11.5761 38.6907 11.2211 36.6158Z" fill="#99AAFF" stroke="#99AAFF"/>
</svg>
